<svg width="29" height="29" viewBox="0 0 29 29" fill="none" xmlns="http://www.w3.org/2000/svg">
<path opacity="0.5" d="M8.09527 14.9524C7.83228 14.9524 7.61908 14.7392 7.61908 14.4762V13.5238C7.61908 13.2608 7.83228 13.0476 8.09527 13.0476H20C20.526 13.0476 20.9524 13.474 20.9524 14C20.9524 14.526 20.526 14.9524 20 14.9524H8.09527Z" fill="#FF5100"/>
<path d="M13.6123 19.0409C13.2404 19.4129 13.2404 20.0159 13.6123 20.3878C13.9842 20.7597 14.5872 20.7597 14.9592 20.3878L20.6734 14.6735C21.034 14.313 21.0466 13.7324 20.7021 13.3565L15.464 7.64225C15.1085 7.25452 14.5061 7.22832 14.1184 7.58375C13.7306 7.93917 13.7044 8.54161 14.0599 8.92934L18.6818 13.9714L13.6123 19.0409Z" fill="#FF5100"/>
</svg>
