<svg width="42" height="42" viewBox="0 0 42 42" fill="none" xmlns="http://www.w3.org/2000/svg">
<path fill-rule="evenodd" clip-rule="evenodd" d="M13.4969 15.9979H8.49479C7.1135 15.9979 5.99375 14.8781 5.99375 13.4968V8.49475C5.99375 7.11347 7.1135 5.99371 8.49479 5.99371H13.4969C14.8782 5.99371 15.9979 7.11347 15.9979 8.49475V13.4968C15.9979 14.8781 14.8782 15.9979 13.4969 15.9979Z" stroke="white" stroke-width="2" stroke-linecap="round" stroke-linejoin="round"/>
<path fill-rule="evenodd" clip-rule="evenodd" d="M33.5052 15.9979H23.501C22.1198 15.9979 21 14.8781 21 13.4968V8.49475C21 7.11347 22.1198 5.99371 23.501 5.99371H33.5052C34.8865 5.99371 36.0063 7.11347 36.0063 8.49475V13.4968C36.0063 14.8781 34.8865 15.9979 33.5052 15.9979Z" stroke="white" stroke-width="2" stroke-linecap="round" stroke-linejoin="round"/>
<path d="M20.2847 23.501L13.0784 30.5556L10.7124 28.1863" stroke="black" stroke-width="2" stroke-linecap="round" stroke-linejoin="round"/>
<path d="M14.9258 21.7153H10.1455C7.85254 21.7153 5.99375 23.5741 5.99375 25.867V31.8545C5.99375 34.1475 7.85254 36.0063 10.1455 36.0063H16.133C18.4259 36.0063 20.2847 34.1475 20.2847 31.8545V30.6474" stroke="white" stroke-width="2" stroke-linecap="round" stroke-linejoin="round"/>
<path fill-rule="evenodd" clip-rule="evenodd" d="M33.5052 31.0042H28.5031C27.1218 31.0042 26.0021 29.8844 26.0021 28.5031V23.501C26.0021 22.1198 27.1218 21 28.5031 21H33.5052C34.8865 21 36.0063 22.1198 36.0063 23.501V28.5031C36.0063 29.8844 34.8865 31.0042 33.5052 31.0042Z" stroke="white" stroke-width="2" stroke-linecap="round" stroke-linejoin="round"/>
</svg>
