<svg width="260" height="399" viewBox="0 0 260 399" fill="none" xmlns="http://www.w3.org/2000/svg">
<path d="M0.99247 8.90299C27.6039 0.685813 55.6382 -1.88274 83.2997 1.36186C110.961 4.60645 137.64 13.5927 161.628 27.7449C185.615 41.8971 206.383 60.9034 222.599 83.5463C238.816 106.189 250.125 131.97 255.802 159.236C261.478 186.503 261.398 214.654 255.565 241.888C249.731 269.121 238.275 294.836 221.928 317.386C205.581 339.935 184.705 358.822 160.637 372.836C136.568 386.85 109.838 395.683 82.1584 398.769L74.4031 329.2C92.3949 327.194 109.769 321.453 125.414 312.343C141.058 303.234 154.628 290.958 165.253 276.301C175.879 261.644 183.325 244.929 187.117 227.227C190.909 209.525 190.961 191.227 187.271 173.504C183.581 155.78 176.231 139.023 165.69 124.305C155.149 109.587 141.65 97.2332 126.058 88.0342C110.466 78.8352 93.1249 72.9942 75.1449 70.8852C57.1649 68.7762 38.9426 70.4458 21.6452 75.787L0.99247 8.90299Z" fill="#FF5100"/>
</svg>
