<svg width="30" height="34" viewBox="0 0 30 34" fill="none" xmlns="http://www.w3.org/2000/svg">
<path d="M24.1705 23.6695C21.8684 23.6695 20.0021 25.5358 20.0021 27.8379C20.0021 30.14 21.8684 32.0063 24.1705 32.0063C26.4726 32.0063 28.3389 30.14 28.3389 27.8379C28.3389 25.5358 26.4726 23.6695 24.1705 23.6695Z" stroke="white" stroke-width="2" stroke-linecap="round" stroke-linejoin="round"/>
<path d="M5.82951 23.6695C3.52737 23.6695 1.66111 25.5358 1.66111 27.8379C1.66111 30.14 3.52737 32.0063 5.82951 32.0063C8.13165 32.0063 9.99791 30.14 9.99791 27.8379C9.99791 25.5358 8.13165 23.6695 5.82951 23.6695Z" stroke="white" stroke-width="2" stroke-linecap="round" stroke-linejoin="round"/>
<path d="M24.1705 23.6695V22.0021C24.1705 19.7 22.3042 17.8337 20.0021 17.8337H9.99792C8.89239 17.8337 7.83214 18.2729 7.05041 19.0546C6.26868 19.8363 5.82951 20.8966 5.82951 22.0021V23.6695" stroke="white" stroke-width="2" stroke-linecap="round" stroke-linejoin="round"/>
<path d="M15 2V9.5031" stroke="black" stroke-width="2" stroke-linecap="round" stroke-linejoin="round"/>
<path d="M15 1.99374C12.6979 1.99374 10.8316 3.85999 10.8316 6.16214C10.8316 8.46428 12.6979 10.3305 15 10.3305C17.3021 10.3305 19.1684 8.46428 19.1684 6.16214C19.1684 3.85999 17.3021 1.99374 15 1.99374Z" stroke="white" stroke-width="2" stroke-linecap="round" stroke-linejoin="round"/>
</svg>
