<svg width="24" height="38" viewBox="0 0 24 38" fill="none" xmlns="http://www.w3.org/2000/svg">
<path fill-rule="evenodd" clip-rule="evenodd" d="M5.33333 0.666672H18.6667C21.198 0.666672 23.25 2.7187 23.25 5.25001V32.75C23.25 35.2813 21.198 37.3333 18.6667 37.3333H5.33333C2.80203 37.3333 0.75 35.2813 0.75 32.75V5.25001C0.75 2.7187 2.80203 0.666672 5.33333 0.666672ZM5.33333 3.16668C4.18274 3.16668 3.25 4.09942 3.25 5.25002V32.75C3.25 33.9006 4.18274 34.8333 5.33333 34.8333H18.6667C19.8173 34.8333 20.75 33.9006 20.75 32.75V5.25002C20.75 4.09942 19.8173 3.16668 18.6667 3.16668H17V2.33335C17 2.10323 16.8135 1.91668 16.5833 1.91668H7.41667C7.18655 1.91668 7 2.10323 7 2.33335V3.16668H5.33333ZM7 3.16668V4.83335C7 5.06347 7.18655 5.25002 7.41667 5.25002H16.5833C16.8135 5.25002 17 5.06347 17 4.83335V3.16668H7Z" fill="white"/>
</svg>
