<svg width="40" height="40" viewBox="0 0 40 40" fill="none" xmlns="http://www.w3.org/2000/svg">
<path d="M8.82153 11.1785C8.17066 10.5276 8.17066 9.47236 8.82153 8.82149C9.4724 8.17061 10.5277 8.17061 11.1786 8.82149L21.1786 18.8215C21.8095 19.4525 21.8316 20.4684 21.2286 21.1262L12.062 31.1262C11.44 31.8047 10.3857 31.8506 9.70717 31.2286C9.02864 30.6066 8.9828 29.5523 9.60478 28.8738L17.6931 20.0501L8.82153 11.1785Z" fill="white"/>
<path d="M35.8334 28.3333H20.8333C20.3731 28.3333 20 28.7064 20 29.1666V30.8333C20 31.2935 20.3731 31.6666 20.8333 31.6666H35.8334C36.2936 31.6666 36.6667 31.2935 36.6667 30.8333V29.1666C36.6667 28.7064 36.2936 28.3333 35.8334 28.3333Z" fill="black"/>
</svg>
